<svg width="34" height="34" viewBox="0 0 50 50" fill="none" xmlns="http://www.w3.org/2000/svg">

  <g id="facebook">
      <path d="M12.4201 5.53663H15.0834V1.03163C13.7939 0.897536 12.4982 0.831333 11.2018 0.833294C7.34842 0.833294 4.71342 3.18496 4.71342 7.49163V11.2033H0.364258V16.2466H4.71342V29.1666H9.92676V16.2466H14.2618L14.9134 11.2033H9.92676V7.98746C9.92676 6.49996 10.3234 5.53663 12.4201 5.53663Z" fill="white"/>
  </g>
  <g id="instagram">
    <path
        d="M24.565 7.73492C24.2288 7.73492 23.9001 7.83462 23.6205 8.02142C23.341 8.20822 23.1231 8.47372 22.9944 8.78436C22.8657 9.09499 22.8321 9.4368 22.8977 9.76657C22.9633 10.0963 23.1252 10.3993 23.3629 10.637C23.6007 10.8748 23.9036 11.0367 24.2334 11.1023C24.5631 11.1678 24.9049 11.1342 25.2156 11.0055C25.5262 10.8768 25.7917 10.659 25.9785 10.3794C26.1653 10.0998 26.265 9.77115 26.265 9.43492C26.265 8.98405 26.0859 8.55165 25.7671 8.23284C25.4483 7.91403 25.0159 7.73492 24.565 7.73492ZM31.0817 11.1633C31.0541 9.98784 30.834 8.82491 30.43 7.72075C30.0698 6.77602 29.5092 5.92056 28.7867 5.21325C28.0852 4.48711 27.2277 3.93 26.2792 3.58409C25.1779 3.16781 24.0137 2.94263 22.8367 2.91825C21.335 2.83325 20.8533 2.83325 17 2.83325C13.1467 2.83325 12.665 2.83325 11.1633 2.91825C9.98631 2.94263 8.82208 3.16781 7.72084 3.58409C6.77405 3.9335 5.91733 4.49013 5.21334 5.21325C4.4872 5.91475 3.93009 6.77221 3.58418 7.72075C3.1679 8.82199 2.94272 9.98622 2.91834 11.1633C2.83334 12.6649 2.83334 13.1466 2.83334 16.9999C2.83334 20.8533 2.83334 21.3349 2.91834 22.8366C2.94272 24.0136 3.1679 25.1778 3.58418 26.2791C3.93009 27.2276 4.4872 28.0851 5.21334 28.7866C5.91733 29.5097 6.77405 30.0663 7.72084 30.4158C8.82208 30.832 9.98631 31.0572 11.1633 31.0816C12.665 31.1666 13.1467 31.1666 17 31.1666C20.8533 31.1666 21.335 31.1666 22.8367 31.0816C24.0137 31.0572 25.1779 30.832 26.2792 30.4158C27.2277 30.0698 28.0852 29.5127 28.7867 28.7866C29.5124 28.0819 30.0735 27.2257 30.43 26.2791C30.834 25.1749 31.0541 24.012 31.0817 22.8366C31.0817 21.3349 31.1667 20.8533 31.1667 16.9999C31.1667 13.1466 31.1667 12.6649 31.0817 11.1633ZM28.5317 22.6666C28.5214 23.5658 28.3585 24.4568 28.05 25.3016C27.8238 25.9181 27.4605 26.4752 26.9875 26.9308C26.528 27.399 25.9721 27.7615 25.3583 27.9933C24.5136 28.3017 23.6226 28.4646 22.7233 28.4749C21.3067 28.5458 20.7825 28.5599 17.0567 28.5599C13.3308 28.5599 12.8067 28.5599 11.39 28.4749C10.4563 28.4924 9.52652 28.3486 8.64168 28.0499C8.05487 27.8064 7.52443 27.4447 7.08334 26.9874C6.61314 26.5323 6.25437 25.9748 6.03501 25.3583C5.68914 24.5014 5.49731 23.5902 5.46834 22.6666C5.46834 21.2499 5.38334 20.7258 5.38334 16.9999C5.38334 13.2741 5.38334 12.7499 5.46834 11.3333C5.47469 10.4139 5.64252 9.50284 5.96418 8.64159C6.21358 8.04363 6.59639 7.5106 7.08334 7.08325C7.51375 6.59616 8.04567 6.2093 8.64168 5.94992C9.50521 5.63831 10.4153 5.47545 11.3333 5.46825C12.75 5.46825 13.2742 5.38325 17 5.38325C20.7258 5.38325 21.25 5.38325 22.6667 5.46825C23.5659 5.47857 24.4569 5.64143 25.3017 5.94992C25.9455 6.18884 26.5233 6.57729 26.9875 7.08325C27.4518 7.51842 27.8145 8.05046 28.05 8.64159C28.3649 9.50424 28.5278 10.4149 28.5317 11.3333C28.6025 12.7499 28.6167 13.2741 28.6167 16.9999C28.6167 20.7258 28.6025 21.2499 28.5317 22.6666ZM17 9.73242C15.5632 9.73522 14.1595 10.1638 12.9663 10.9641C11.773 11.7644 10.8437 12.9004 10.2958 14.2286C9.74794 15.5568 9.60604 17.0176 9.88805 18.4264C10.1701 19.8352 10.8633 21.1288 11.8803 22.1438C12.8972 23.1588 14.1922 23.8495 15.6016 24.1288C17.0109 24.4081 18.4715 24.2633 19.7986 23.7128C21.1257 23.1624 22.2599 22.2309 23.0579 21.0361C23.8558 19.8412 24.2817 18.4367 24.2817 16.9999C24.2836 16.0438 24.0964 15.0968 23.7309 14.2133C23.3655 13.3298 22.829 12.5272 22.1522 11.8518C21.4755 11.1764 20.6719 10.6415 19.7877 10.2777C18.9035 9.91401 17.9561 9.72868 17 9.73242ZM17 21.7174C16.067 21.7174 15.1549 21.4407 14.3791 20.9224C13.6033 20.404 12.9987 19.6672 12.6416 18.8052C12.2846 17.9432 12.1911 16.9947 12.3732 16.0796C12.5552 15.1645 13.0045 14.3239 13.6642 13.6641C14.324 13.0044 15.1646 12.5551 16.0797 12.3731C16.9948 12.191 17.9433 12.2845 18.8053 12.6415C19.6673 12.9986 20.4041 13.6032 20.9225 14.379C21.4408 15.1548 21.7175 16.0669 21.7175 16.9999C21.7175 17.6194 21.5955 18.2329 21.3584 18.8052C21.1213 19.3776 20.7738 19.8976 20.3358 20.3357C19.8977 20.7738 19.3777 21.1212 18.8053 21.3583C18.233 21.5954 17.6195 21.7174 17 21.7174Z"
        fill="white"/>
  </g>
  <g id="twitter">
    <path
        d="M32.5706 5.59573C32.5706 5.34568 32.5044 5.1001 32.3787 4.88393C32.253 4.66776 32.0723 4.48871 31.8551 4.36496C31.6378 4.24121 31.3916 4.17718 31.1416 4.17936C30.8915 4.18154 30.6465 4.24987 30.4315 4.37739C29.6019 4.87154 28.7087 5.24999 27.7766 5.50223C26.4463 4.36078 24.7497 3.73622 22.9968 3.74273C21.074 3.74503 19.2273 4.49445 17.8467 5.83276C16.4661 7.17107 15.6596 8.99352 15.5975 10.9153C11.8063 10.3109 8.37009 8.33206 5.94437 5.35631C5.79821 5.17919 5.61164 5.03976 5.40036 4.94978C5.18908 4.85979 4.95927 4.82188 4.73029 4.83923C4.50135 4.85817 4.28047 4.93257 4.08672 5.05597C3.89296 5.17938 3.73216 5.3481 3.6182 5.54756C3.03386 6.56741 2.69828 7.71071 2.63871 8.8846C2.57914 10.0585 2.79727 11.2299 3.27537 12.3036L3.27254 12.3051C3.05718 12.4374 2.87945 12.6228 2.75641 12.8436C2.63336 13.0644 2.56913 13.3131 2.56987 13.5659C2.5676 13.7738 2.58038 13.9817 2.60812 14.1878C2.75279 15.97 3.5426 17.6383 4.82945 18.8798C4.74213 19.0463 4.68888 19.2285 4.67283 19.4158C4.65677 19.6031 4.67823 19.7917 4.73595 19.9706C5.29692 21.719 6.49015 23.1952 8.08212 24.1101C6.46453 24.7355 4.71796 24.9535 2.99629 24.7448C2.67778 24.7052 2.35526 24.7749 2.08156 24.9425C1.80785 25.1102 1.59918 25.3658 1.48972 25.6675C1.38026 25.9692 1.37649 26.2992 1.47905 26.6033C1.5816 26.9074 1.78439 27.1677 2.0542 27.3416C5.01533 29.2484 8.46303 30.2621 11.985 30.2613C15.979 30.3063 19.8758 29.0301 23.0694 26.6312C26.263 24.2324 28.5743 20.8454 29.6438 16.9971C30.1438 15.3208 30.3991 13.5811 30.4017 11.8319L30.4003 11.5486C31.14 10.7507 31.713 9.81318 32.0857 8.79098C32.4584 7.76878 32.6232 6.68247 32.5706 5.59573ZM27.8871 10.1461C27.6529 10.4226 27.5342 10.7788 27.5556 11.1406C27.5698 11.3743 27.5684 11.6095 27.5684 11.8319C27.5654 13.3097 27.3487 14.7794 26.9252 16.1952C26.0521 19.47 24.1052 22.357 21.3964 24.3939C18.6875 26.4308 15.3735 27.4997 11.985 27.4294C10.7683 27.4296 9.55579 27.2865 8.37254 27.003C9.88173 26.5163 11.2928 25.7661 12.5404 24.7873C12.7704 24.6064 12.9388 24.3588 13.0224 24.0783C13.106 23.7979 13.1007 23.4984 13.0072 23.2211C12.9138 22.9438 12.7367 22.7023 12.5004 22.5297C12.2641 22.357 11.9801 22.2618 11.6875 22.2571C10.5099 22.2387 9.3854 21.7638 8.55104 20.9326C8.76259 20.8929 8.97273 20.8433 9.18145 20.7838C9.48749 20.6968 9.75533 20.5093 9.94183 20.2516C10.1283 19.9938 10.2226 19.6807 10.2095 19.3629C10.1965 19.045 10.0767 18.7407 9.86968 18.4992C9.66262 18.2576 9.38027 18.0928 9.06812 18.0312C8.38457 17.8962 7.74136 17.6053 7.18853 17.1813C6.63569 16.7572 6.18812 16.2113 5.88062 15.5861C6.13669 15.6211 6.39439 15.6428 6.6527 15.6512C6.95967 15.6563 7.26027 15.5634 7.51091 15.3861C7.76156 15.2089 7.94922 14.9563 8.0467 14.6652C8.14028 14.3716 8.13558 14.0556 8.03332 13.7649C7.93106 13.4742 7.73681 13.2248 7.48004 13.0545C6.85661 12.6395 6.34586 12.0763 5.99355 11.4155C5.64123 10.7546 5.45835 10.0166 5.46129 9.26773C5.46129 9.17423 5.46412 9.07931 5.46979 8.98723C8.64519 11.949 12.7641 13.6948 17.1006 13.9172C17.3196 13.9255 17.5376 13.8839 17.7381 13.7956C17.9386 13.7072 18.1164 13.5744 18.258 13.4072C18.3983 13.239 18.4977 13.0405 18.5483 12.8274C18.599 12.6143 18.5995 12.3923 18.5499 12.179C18.4688 11.8407 18.4274 11.4941 18.4266 11.1462C18.4281 9.9346 18.9101 8.77303 19.7668 7.91629C20.6236 7.05954 21.7852 6.57756 22.9968 6.57606C23.6203 6.57422 24.2375 6.70168 24.8093 6.95039C25.3811 7.1991 25.8951 7.56366 26.3189 8.02106C26.4823 8.1969 26.6879 8.328 26.9163 8.4019C27.1447 8.47579 27.3882 8.49002 27.6236 8.44323C28.2056 8.3301 28.7792 8.1777 29.3406 7.98706C28.9579 8.77023 28.4687 9.49676 27.8871 10.1461Z"
        fill="white"/>
  </g>
  <g id="skype">
    <path
        d="M21.4484 16.7352C20.8807 16.3707 20.2646 16.0879 19.6181 15.8951C19.2214 15.7747 18.7822 15.6571 18.3289 15.5452C17.9322 15.4347 17.4619 15.3213 16.8811 15.1938C16.1879 15.0485 15.5076 14.8476 14.8467 14.5932C14.5061 14.4608 14.2055 14.2427 13.9741 13.9599C13.8047 13.7285 13.7242 13.4439 13.7474 13.1581C13.7469 12.8516 13.8491 12.5538 14.0378 12.3123C14.3019 12.003 14.6445 11.7706 15.0295 11.6394C15.6771 11.4169 16.3595 11.3132 17.044 11.3334C17.5736 11.3246 18.1016 11.3943 18.6108 11.5402C18.9485 11.6353 19.2666 11.7897 19.5501 11.9964C19.7334 12.1272 19.8897 12.2922 20.0105 12.4823C20.0979 12.6474 20.2172 12.7936 20.3614 12.9124C20.5056 13.0312 20.6718 13.1203 20.8506 13.1746C21.0294 13.2289 21.2171 13.2473 21.403 13.2287C21.5889 13.2102 21.7693 13.155 21.9338 13.0665C22.0983 12.9779 22.2437 12.8577 22.3615 12.7127C22.4794 12.5678 22.5674 12.4009 22.6205 12.2218C22.6736 12.0427 22.6908 11.8548 22.671 11.6691C22.6512 11.4833 22.5949 11.3032 22.5052 11.1393C22.2065 10.6109 21.803 10.1491 21.3195 9.78216C20.7608 9.35301 20.1272 9.03162 19.4509 8.83441C18.6702 8.60377 17.8594 8.49108 17.0454 8.50008C16.0107 8.47781 14.9806 8.64588 14.0066 8.99591C13.1258 9.31657 12.352 9.8769 11.7726 10.6137C11.2176 11.3464 10.9171 12.2403 10.9169 13.1595C10.8939 14.0746 11.1838 14.9701 11.7386 15.6982C12.2742 16.3727 12.9763 16.8961 13.7757 17.2168C14.3798 17.4493 14.9983 17.6423 15.6273 17.7948C15.6386 17.7991 15.6471 17.809 15.6585 17.8118C15.9305 17.894 16.364 18.0031 16.9901 18.1377C17.2352 18.1915 17.4647 18.2496 17.6942 18.3077C17.7169 18.3133 17.7495 18.3204 17.7707 18.3275L17.7962 18.3303C18.1476 18.421 18.4861 18.5131 18.7964 18.608C19.1776 18.7195 19.5413 18.8836 19.8773 19.0953C20.0868 19.2269 20.2629 19.4054 20.3916 19.6167C20.5161 19.8744 20.5736 20.1595 20.5587 20.4454C20.5783 20.8155 20.4714 21.1812 20.2556 21.4824C19.964 21.8618 19.5697 22.1494 19.1194 22.3112C18.4482 22.5702 17.7318 22.6916 17.0128 22.6682C16.1813 22.7001 15.3542 22.533 14.6002 22.1808C14.252 21.9954 13.9529 21.7298 13.7276 21.4059C13.5694 21.1987 13.4705 20.9524 13.4414 20.6933C13.4414 20.3176 13.2921 19.9573 13.0265 19.6916C12.7608 19.4259 12.4005 19.2767 12.0247 19.2767C11.649 19.2767 11.2887 19.4259 11.023 19.6916C10.7573 19.9573 10.6081 20.3176 10.6081 20.6933C10.6314 21.5293 10.9059 22.3389 11.3957 23.0167C11.8853 23.7217 12.5374 24.2984 13.2969 24.6982C14.4525 25.2621 15.7275 25.5377 17.0128 25.5015C18.105 25.5279 19.1913 25.3327 20.206 24.9277C21.1492 24.5658 21.9682 23.9397 22.5647 23.1243C23.1318 22.33 23.4225 21.3714 23.3921 20.3958C23.4052 19.6396 23.2222 18.8928 22.8608 18.2283C22.5118 17.6285 22.0283 17.1178 21.4484 16.7366V16.7352ZM31.6782 19.3957C32.0601 17.0675 31.8823 14.6818 31.1594 12.436C30.4366 10.1902 29.1894 8.14869 27.5211 6.48041C25.8529 4.81214 23.8114 3.565 21.5656 2.84214C19.3197 2.11928 16.9341 1.94147 14.6059 2.32341C12.8869 1.49922 10.9545 1.22894 9.07539 1.54987C7.19626 1.8708 5.46308 2.76712 4.11509 4.11511C2.76711 5.46309 1.87079 7.19627 1.54986 9.0754C1.22893 10.9545 1.49921 12.8869 2.3234 14.6059C1.94177 16.9338 2.11976 19.3192 2.84266 21.5647C3.56556 23.8102 4.81261 25.8514 6.48068 27.5195C8.14875 29.1875 10.1899 30.4346 12.4354 31.1575C14.681 31.8804 17.0663 32.0584 19.3942 31.6767C21.1132 32.5009 23.0456 32.7712 24.9247 32.4503C26.8039 32.1294 28.5371 31.233 29.885 29.885C31.233 28.5371 32.1293 26.8039 32.4503 24.9248C32.7712 23.0456 32.5009 21.1132 31.6767 19.3942L31.6782 19.3957ZM23.3751 29.7501C22.3001 29.7496 21.2427 29.4777 20.3009 28.9596C20.0087 28.7986 19.6692 28.7454 19.3418 28.8094C17.5959 29.1576 15.7944 29.114 14.0674 28.6817C12.3403 28.2494 10.7307 27.4391 9.35477 26.3094C7.97879 25.1797 6.87071 23.7586 6.11045 22.1488C5.35019 20.5389 4.95672 18.7804 4.9584 17.0001C4.95986 16.2133 5.03766 15.4286 5.19073 14.6569C5.25482 14.3295 5.20166 13.99 5.04056 13.6978C4.37538 12.488 4.12093 11.0949 4.31549 9.72803C4.51005 8.36116 5.14309 7.0944 6.11944 6.11821C7.09578 5.14203 8.36265 4.50919 9.72955 4.31486C11.0965 4.12052 12.4895 4.37519 13.6992 5.04058C13.9917 5.20236 14.3319 5.25555 14.6597 5.19075C16.4056 4.84276 18.2069 4.88656 19.9338 5.319C21.6606 5.75143 23.27 6.56172 24.6458 7.69142C26.0216 8.82113 27.1296 10.2421 27.8897 11.8518C28.6499 13.4615 29.0434 15.2199 29.0417 17.0001C29.0403 17.7868 28.9625 18.5715 28.8094 19.3432C28.7453 19.6707 28.7985 20.0102 28.9596 20.3023C29.494 21.2729 29.7661 22.366 29.7492 23.4738C29.7323 24.5816 29.4269 25.6659 28.8631 26.6197C28.2993 27.5735 27.4967 28.3638 26.5343 28.9128C25.5719 29.4617 24.483 29.7503 23.3751 29.7501Z"
        fill="white"/>
  </g>
  <g id="linkedin">
    <path
        d="M24.7917 12.7486C23.5236 12.7484 22.2751 13.0623 21.1579 13.6623C21.0559 13.3936 20.8746 13.1623 20.638 12.9991C20.4014 12.8359 20.1208 12.7485 19.8334 12.7486H14.1667C13.791 12.7486 13.4306 12.8978 13.165 13.1635C12.8993 13.4292 12.75 13.7895 12.75 14.1653V31.1653C12.75 31.541 12.8993 31.9013 13.165 32.167C13.4306 32.4327 13.791 32.5819 14.1667 32.5819H19.8334C20.2091 32.5819 20.5694 32.4327 20.8351 32.167C21.1008 31.9013 21.25 31.541 21.25 31.1653V23.3736C21.25 22.9979 21.3993 22.6375 21.665 22.3719C21.9306 22.1062 22.291 21.9569 22.6667 21.9569C23.0424 21.9569 23.4027 22.1062 23.6684 22.3719C23.9341 22.6375 24.0834 22.9979 24.0834 23.3736V31.1653C24.0834 31.541 24.2326 31.9013 24.4983 32.167C24.764 32.4327 25.1243 32.5819 25.5 32.5819H31.1667C31.5424 32.5819 31.9027 32.4327 32.1684 32.167C32.4341 31.9013 32.5834 31.541 32.5834 31.1653V20.5403C32.5807 18.4746 31.759 16.4943 30.2983 15.0336C28.8377 13.573 26.8574 12.7512 24.7917 12.7486ZM29.75 29.7486H26.9167V23.3736C26.9167 22.2464 26.4689 21.1654 25.6719 20.3684C24.8749 19.5714 23.7939 19.1236 22.6667 19.1236C21.5395 19.1236 20.4585 19.5714 19.6615 20.3684C18.8645 21.1654 18.4167 22.2464 18.4167 23.3736V29.7486H15.5834V15.5819H18.4167V16.5778C18.4166 16.8715 18.5077 17.1579 18.6774 17.3975C18.8472 17.6371 19.0872 17.818 19.3643 17.9152C19.6413 18.0125 19.9418 18.0212 20.224 17.9402C20.5063 17.8593 20.7564 17.6926 20.9398 17.4633C21.5758 16.6559 22.448 16.0673 23.4346 15.7796C24.4213 15.4919 25.4732 15.5195 26.4434 15.8585C27.4137 16.1975 28.2538 16.8311 28.8466 17.6706C29.4394 18.5102 29.7552 19.5139 29.75 20.5417V29.7486ZM9.91669 12.7486H4.25002C3.8743 12.7486 3.51397 12.8978 3.24829 13.1635C2.98261 13.4292 2.83336 13.7895 2.83336 14.1653V31.1653C2.83336 31.541 2.98261 31.9013 3.24829 32.167C3.51397 32.4327 3.8743 32.5819 4.25002 32.5819H9.91669C10.2924 32.5819 10.6527 32.4327 10.9184 32.167C11.1841 31.9013 11.3334 31.541 11.3334 31.1653V14.1653C11.3334 13.7895 11.1841 13.4292 10.9184 13.1635C10.6527 12.8978 10.2924 12.7486 9.91669 12.7486ZM8.50002 29.7486H5.66669V15.5819H8.50002V29.7486ZM7.10461 2.1845C6.48424 2.14671 5.86266 2.23557 5.27773 2.44568C4.69281 2.65579 4.15676 2.98275 3.70224 3.40666C3.24771 3.83056 2.88422 4.34254 2.6339 4.91142C2.38357 5.48031 2.25165 6.09418 2.24617 6.71568C2.24068 7.33718 2.36174 7.95329 2.60199 8.5265C2.84223 9.09971 3.19662 9.61803 3.64359 10.0499C4.09056 10.4818 4.62075 10.8181 5.20188 11.0385C5.78301 11.2589 6.40292 11.3588 7.02386 11.3319H7.06352C7.68424 11.3674 8.30569 11.2761 8.88999 11.0636C9.47429 10.8511 10.0092 10.5219 10.4622 10.096C10.9151 9.67014 11.2766 9.15648 11.5246 8.58636C11.7727 8.01624 11.902 7.40159 11.9048 6.77986C11.9076 6.15814 11.7838 5.54235 11.5409 4.97002C11.298 4.3977 10.9411 3.88081 10.492 3.45087C10.0429 3.02092 9.51095 2.68692 8.92859 2.4692C8.34622 2.25148 7.72562 2.15462 7.10461 2.1845ZM7.06352 8.49859H7.02386C6.77883 8.5285 6.53025 8.50567 6.29477 8.43163C6.0593 8.35758 5.84238 8.23404 5.65857 8.06928C5.47476 7.90452 5.32831 7.70236 5.22905 7.47636C5.12978 7.25036 5.07999 7.00574 5.08302 6.75892C5.08302 5.70067 5.87636 5.01784 7.10461 5.01784C7.35197 4.98528 7.60344 5.00605 7.84211 5.07876C8.08078 5.15146 8.30113 5.27441 8.48834 5.43934C8.67555 5.60427 8.82528 5.80736 8.92748 6.03497C9.02968 6.26258 9.08198 6.50942 9.08086 6.75892C9.08086 7.81575 8.28752 8.49859 7.06211 8.49859H7.06352Z"
        fill="white"/>
  </g>
  <g id="dribble">
    <path
        d="M17 2.83325C14.1981 2.83325 11.4591 3.66411 9.12942 5.22077C6.79973 6.77742 4.98395 8.98995 3.91171 11.5786C2.83947 14.1672 2.55892 17.0156 3.10554 19.7637C3.65217 22.5118 5.00141 25.036 6.98266 27.0173C8.9639 28.9985 11.4882 30.3478 14.2362 30.8944C16.9843 31.441 19.8327 31.1605 22.4214 30.0882C25.01 29.016 27.2225 27.2002 28.7792 24.8705C30.3358 22.5408 31.1667 19.8018 31.1667 16.9999C31.1667 15.1395 30.8002 13.2973 30.0883 11.5786C29.3764 9.85979 28.3328 8.29807 27.0173 6.98257C25.7019 5.66708 24.1401 4.62357 22.4214 3.91163C20.7026 3.19968 18.8604 2.83325 17 2.83325ZM17 5.66659C19.9109 5.66542 22.7088 6.79274 24.8058 8.81158C22.6412 10.0812 20.3474 11.1165 17.9633 11.8999C16.7769 9.85542 15.4166 7.91687 13.8975 6.10575C14.9061 5.81533 15.9504 5.66751 17 5.66659ZM11.1775 7.29575C12.6617 8.99363 13.9938 10.8187 15.1583 12.7499C12.3776 13.4404 9.52355 13.7924 6.65833 13.7983H6.14833C6.95187 11.0777 8.74641 8.75748 11.1775 7.29575ZM8.5 24.5224C6.65657 22.4523 5.64695 19.7718 5.66667 16.9999V16.5891H6.63C9.98378 16.5591 13.3186 16.0827 16.5467 15.1724C17 16.0366 17.425 16.9291 17.8358 17.8499C15.6279 18.6283 13.5717 19.7834 11.7583 21.2641L11.3333 21.6041C10.3234 22.5111 9.37676 23.4861 8.5 24.5224ZM17 28.3333C14.742 28.3383 12.5349 27.6618 10.6675 26.3924C11.3572 25.6013 12.0953 24.8538 12.8775 24.1541L13.3308 23.7716C15.007 22.3619 16.9277 21.2718 18.9975 20.5558C19.8494 22.8592 20.5127 25.2281 20.9808 27.6391C19.7056 28.1047 18.3576 28.3398 17 28.3333ZM23.5592 26.2224C23.0957 24.0784 22.4899 21.9676 21.7458 19.9041H22.2275C22.2833 19.8903 22.3417 19.8903 22.3975 19.9041H23.375C24.8658 19.9084 26.3455 20.1621 27.7525 20.6549C26.9795 22.9079 25.5112 24.8574 23.5592 26.2224ZM23.375 16.9999H22.4967C22.3132 16.9768 22.1276 16.9768 21.9442 16.9999C21.5591 17.0236 21.1759 17.0709 20.7967 17.1416H20.655C20.2442 16.1924 19.8192 15.2716 19.3517 14.3083C21.8884 13.4371 24.3247 12.2973 26.6192 10.9083C27.7574 12.7349 28.3519 14.8478 28.3333 16.9999V17.7224C26.7278 17.2269 25.0552 16.9832 23.375 16.9999Z"
        fill="white"/>
  </g>
  <g id="email">
    <path d="M19 4H5C4.20435 4 3.44129 4.31607 2.87868 4.87868C2.31607 5.44129 2 6.20435 2 7V17C2 17.7956 2.31607 18.5587 2.87868 19.1213C3.44129 19.6839 4.20435 20 5 20H19C19.7956 20 20.5587 19.6839 21.1213 19.1213C21.6839 18.5587 22 17.7956 22 17V7C22 6.20435 21.6839 5.44129 21.1213 4.87868C20.5587 4.31607 19.7956 4 19 4ZM18.59 6L12.71 11.88C12.617 11.9737 12.5064 12.0481 12.3846 12.0989C12.2627 12.1497 12.132 12.1758 12 12.1758C11.868 12.1758 11.7373 12.1497 11.6154 12.0989C11.4936 12.0481 11.383 11.9737 11.29 11.88L5.41 6H18.59ZM20 17C20 17.2652 19.8946 17.5196 19.7071 17.7071C19.5196 17.8946 19.2652 18 19 18H5C4.73478 18 4.48043 17.8946 4.29289 17.7071C4.10536 17.5196 4 17.2652 4 17V7.41L9.88 13.29C10.4425 13.8518 11.205 14.1674 12 14.1674C12.795 14.1674 13.5575 13.8518 14.12 13.29L20 7.41V17Z" fill="white" />
  </g>
  <g id="tel">
    <path d="M20 13.18V11C20 8.87827 19.1571 6.84344 17.6569 5.34315C16.1566 3.84285 14.1217 3 12 3C9.87827 3 7.84344 3.84285 6.34315 5.34315C4.84285 6.84344 4 8.87827 4 11V13.18C3.41645 13.3863 2.911 13.7681 2.55294 14.2729C2.19488 14.7778 2.00174 15.3811 2 16V18C2 18.7956 2.31607 19.5587 2.87868 20.1213C3.44129 20.6839 4.20435 21 5 21H8C8.26522 21 8.51957 20.8946 8.70711 20.7071C8.89464 20.5196 9 20.2652 9 20V14C9 13.7348 8.89464 13.4804 8.70711 13.2929C8.51957 13.1054 8.26522 13 8 13H6V11C6 9.4087 6.63214 7.88258 7.75736 6.75736C8.88258 5.63214 10.4087 5 12 5C13.5913 5 15.1174 5.63214 16.2426 6.75736C17.3679 7.88258 18 9.4087 18 11V13H16C15.7348 13 15.4804 13.1054 15.2929 13.2929C15.1054 13.4804 15 13.7348 15 14V20C15 20.2652 15.1054 20.5196 15.2929 20.7071C15.4804 20.8946 15.7348 21 16 21H19C19.7956 21 20.5587 20.6839 21.1213 20.1213C21.6839 19.5587 22 18.7956 22 18V16C21.9983 15.3811 21.8051 14.7778 21.4471 14.2729C21.089 13.7681 20.5835 13.3863 20 13.18ZM7 15V19H5C4.73478 19 4.48043 18.8946 4.29289 18.7071C4.10536 18.5196 4 18.2652 4 18V16C4 15.7348 4.10536 15.4804 4.29289 15.2929C4.48043 15.1054 4.73478 15 5 15H7ZM20 18C20 18.2652 19.8946 18.5196 19.7071 18.7071C19.5196 18.8946 19.2652 19 19 19H17V15H19C19.2652 15 19.5196 15.1054 19.7071 15.2929C19.8946 15.4804 20 15.7348 20 16V18Z" fill="white" />
  </g>
  <g id="icon-contact">
    <path d="M2.70051 8.00001L1.31751 3.29901C0.956764 2.07276 2.10501 0.938765 3.31626 1.32801C6.65705 2.4008 9.84386 3.9042 12.7963 5.80027C13.6438 6.34477 14.75 6.83151 14.75 8.00001C14.75 9.16851 13.6445 9.65526 12.7963 10.1998C9.84387 12.0958 6.65706 13.5992 3.31626 14.672C2.10576 15.0613 0.956764 13.9273 1.31751 12.701L2.70051 8.00001ZM2.70051 8.00001H6.37551" stroke="white" stroke-width="1.5" stroke-linecap="round" stroke-linejoin="round" />
  </g>
  <g id="logo">

      <mask id="mask0_2_225" style="mask-type:luminance" maskUnits="userSpaceOnUse" x="0" y="0" width="31" height="32">
        <path d="M30.7697 0.52002H0.0396729V31.25H30.7697V0.52002Z" fill="white" />
      </mask>

        <path d="M23.1691 31.2449V27.4329C23.7134 27.4329 24.2418 27.4391 24.7657 27.4329C25.0943 27.4365 25.423 27.4165 25.7488 27.3728C26.3737 27.2724 26.7888 26.8444 26.8892 26.2172C26.9293 25.9546 26.9487 25.6891 26.9469 25.4234C26.9501 19.0756 26.9501 12.7279 26.9469 6.38057C26.9469 4.79917 26.4824 4.33539 24.9132 4.33311H23.1821V0.537004C23.2938 0.531682 23.4154 0.520278 23.5371 0.520278C25.298 0.520278 27.059 0.520278 28.8203 0.520278C29.0609 0.517605 29.3012 0.535665 29.5388 0.574258C30.1843 0.68602 30.6032 1.09885 30.7127 1.74738C30.7549 2.04957 30.7721 2.35471 30.7643 2.65972C30.7643 11.4902 30.7643 20.3212 30.7643 29.1526C30.7643 30.8018 30.3181 31.2481 28.6653 31.2488H23.1683L23.1691 31.2449Z" fill="white" />
        <path d="M7.63644 27.4341V31.2279C7.51179 31.2341 7.39011 31.2454 7.26923 31.2454H1.98524C1.82103 31.2454 1.65528 31.2454 1.49182 31.2311C0.625094 31.1511 0.110379 30.6274 0.0518374 29.7568C0.0396729 29.5417 0.0396729 29.3257 0.0396729 29.1106C0.0396729 20.2791 0.0396729 11.4479 0.0396729 2.61689C0.0396729 0.967827 0.48596 0.52002 2.13807 0.52002H7.62883V4.33209C7.0921 4.33209 6.56443 4.32524 6.0368 4.33209C5.70776 4.33097 5.37904 4.35281 5.05299 4.39747C4.4288 4.49708 4.01217 4.92588 3.91256 5.55233C3.87278 5.81502 3.85346 6.0804 3.85479 6.34608C3.85174 12.694 3.85174 19.0419 3.85479 25.3897C3.85479 26.9711 4.31932 27.4356 5.88777 27.4371L7.63644 27.4341Z" fill="white" />
        <path d="M8.17477 15.8223C8.17477 12.9971 8.17477 10.1721 8.17477 7.34742C8.17477 6.20698 8.77161 5.66036 9.89833 5.59875C11.387 5.51436 12.0165 6.22677 12.0043 7.70778C11.9587 13.2305 11.9861 18.754 11.9861 24.2768C11.9861 25.4931 11.4129 26.0718 10.2055 26.0725C10.0534 26.0725 9.90137 26.0725 9.7493 26.0725C8.81493 26.0581 8.1786 25.4263 8.17632 24.4887C8.17099 22.3737 8.17632 20.2579 8.17632 18.1427L8.17477 15.8223Z" fill="white" />
        <path d="M18.8189 15.8014C18.8189 12.9772 18.8189 10.1525 18.8189 7.3273C18.8189 6.21655 19.427 5.66305 20.5265 5.59916C22.075 5.50946 22.6591 6.27129 22.6483 7.69302C22.6051 13.2287 22.6309 18.7643 22.6301 24.2999C22.6301 25.489 22.0492 26.0721 20.8648 26.073C20.7126 26.073 20.5606 26.073 20.4086 26.073C19.4521 26.0654 18.8189 25.432 18.8189 24.4688C18.8163 21.5797 18.8163 18.6905 18.8189 15.8014Z" fill="white" />
        <path d="M17.308 15.9029C17.308 17.2447 17.308 18.5867 17.308 19.9285C17.308 20.9481 16.7546 21.5357 15.7357 21.5837C15.1184 21.6125 14.4874 21.6719 13.9871 21.1792C13.683 20.8811 13.5043 20.53 13.5036 20.1026C13.5036 17.3048 13.4944 14.5076 13.5036 11.7098C13.5074 10.8689 14.1658 10.2417 15.0127 10.2212C15.2658 10.2143 15.5199 10.2151 15.773 10.2212C16.661 10.2402 17.3019 10.875 17.308 11.7638C17.3141 13.143 17.308 14.5229 17.308 15.9029Z" fill="white" />

  </g>
  <g id="arrow">
      <path d="M12.0503 12.5308H21.9497V22.4303" stroke="#F8FAFC" stroke-width="2" stroke-linecap="round" stroke-linejoin="round"/>
      <path d="M12.0502 22.4303L21.9497 12.5308" stroke="#F8FAFC" stroke-width="2" stroke-linecap="round" stroke-linejoin="round"/>
  </g>
</svg>